{"title":"The Chronicles of Narnia - The Voyage of the Dawn Treader 2010 A","uid":6057851,"size":949712781,"categoryP":"video","categoryS":"hd___movies","magnet":"?xt=urn:btih:ef21b2be58af29bb0352f9fd2ba053ed8695b057&amp;dn=The+Chronicles+of+Narnia+-+The+Voyage+of+the+Dawn+Treader+2010+A&amp;tr=udp%3A%2F%2Ftracker.openbittorrent.com%3A80&amp;tr=udp%3A%2F%2Fopen.demonii.com%3A1337&amp;tr=udp%3A%2F%2Ftracker.coppersurfer.tk%3A6969&amp;tr=udp%3A%2F%2Fexodus.desync.com%3A6969","seeders":0,"leechers":0,"uploader":"bsbt-RG","files":13,"time":1292979424,"description":"Lucy and Edmund Pevensie return to Narnia with their cousin Eustace where they meet up with Prince Caspian for a trip across the sea aboard the royal ship The Dawn Treader. Along the way they encounter dragons, dwarves, merfolk, and a band of lost warriors before reaching the edge of the world.\n\nThe Chronicles of Narnia - The Voyage of the Dawn Treader 2010 ACC 2CH H264 - BSBT-RG\n\nSPECS\n\nGeneral\nComplete name : The Chronicles of Narnia - The Voyage of the Dawn Treader\nFormat : MPEG-4\nFormat profile : Base Media / Version 2\nCodec ID : mp42\nFile size : 904 MiB\nDuration : 1h 45mn\nOverall bit rate : 1 201 Kbps\nEncoded date : UTC 2010-12-13 12:45:27\nTagged date : UTC 2010-12-13 14:08:52\nWriting application : HandBrake 0.9.4 2009112300\n\nVideo\nID : 1\nFormat : AVC\nFormat/Info : Advanced Video Codec\nFormat settings, CABAC : Yes\nFormat settings, ReFrames : 3 frames\nFormat settings, GOP : N=1\nCodec ID : avc1\nCodec ID/Info : Advanced Video Coding\nDuration : 1h 45mn\nBit rate mode : Variable\nBit rate : 1 036 Kbps\nWidth : 700 pixels\nHeight : 328 pixels\nDisplay aspect ratio : 2.2:1\nFrame rate mode : Variable\nFrame rate : 25.000 fps\nMinimum frame rate : 25.007 fps\nMaximum frame rate : 25.014 fps\nColor space : YUV\nChroma subsampling : 4:2:0\nBit depth : 8 bits\nScan type : Progressive\nBits/(Pixel*Frame) : 0.180\nStream size : 780 MiB (86%)\nWriting library : x264 core 79\nEncoded date : UTC 2010-12-13 12:45:27\nTagged date : UTC 2010-12-13 14:08:52\nColor primaries : BT.601-6 525, BT.1358 525, BT.1700 NTSC, SMPTE 170M\nTransfer characteristics : BT.709-5, BT.1361\nMatrix coefficients : BT.601-6 525, BT.1358 525, BT.1700 NTSC, SMPTE 170M\n\nAudio\nID : 2\nFormat : AAC\nFormat/Info : Advanced Audio Codec\nFormat version : Version 4\nFormat profile : LC\nCodec ID : 40\nDuration : 1h 45mn\nBit rate mode : Variable\nBit rate : 160 Kbps\nMaximum bit rate : 212 Kbps\nChannel(s) : 2 channels\nChannel positions : Front: L R\nSampling rate : 48.0 KHz\nCompression mode : Lossy\nStream size : 120 MiB (13%)\nEncoded date : UTC 2010-12-13 12:45:27\nTagged date : UTC 2010-12-13 14:08:52\n\nwww.blackstarbt.net","torrent":{"xt":"urn:btih:ef21b2be58af29bb0352f9fd2ba053ed8695b057","amp;dn":"The+Chronicles+of+Narnia+-+The+Voyage+of+the+Dawn+Treader+2010+A","amp;tr":["udp%3A%2F%2Ftracker.openbittorrent.com%3A80","udp%3A%2F%2Fopen.demonii.com%3A1337","udp%3A%2F%2Ftracker.coppersurfer.tk%3A6969","udp%3A%2F%2Fexodus.desync.com%3A6969"],"infoHash":"ef21b2be58af29bb0352f9fd2ba053ed8695b057","infoHashBuffer":{"type":"Buffer","data":[239,33,178,190,88,175,41,187,3,82,249,253,43,160,83,237,134,149,176,87]},"announce":[],"urlList":[]}}